<svg width="276" height="160" viewBox="0 0 276 160" fill="none" xmlns="http://www.w3.org/2000/svg">
<g filter="url(#filter0_d_67_1355)">
<g clip-path="url(#clip0_67_1355)">
<g filter="url(#filter1_f_67_1355)">
<path d="M-130 -76H406V228H-130V-76Z" fill="#E9D5FF"/>
<path d="M-2.06787 -16L-56.6792 104L129.404 191.8L153.676 154" fill="white"/>
<path d="M74.7925 -45L58.6113 83L68.7245 163.8L273.011 12" fill="#D9F99D"/>
<path d="M310.43 39L148.619 195L219.411 229.8L332.679 228" fill="#E9D5FF"/>
<path d="M51.5323 46L-63.7583 158L15.1247 219.8L114.234 75" fill="#D9F99D"/>
<path d="M48.4979 141L44.4526 205L224.468 318.8L225.479 285" fill="#E9D5FF"/>
<path d="M213.343 105L145.585 115L201.208 308.8L344.815 119" fill="#E9D5FF"/>
</g>
</g>
</g>
<defs>
<filter id="filter0_d_67_1355" x="0" y="0" width="276" height="160" filterUnits="userSpaceOnUse" color-interpolation-filters="sRGB">
<feFlood flood-opacity="0" result="BackgroundImageFix"/>
<feColorMatrix in="SourceAlpha" type="matrix" values="0 0 0 0 0 0 0 0 0 0 0 0 0 0 0 0 0 0 127 0" result="hardAlpha"/>
<feOffset dy="4"/>
<feGaussianBlur stdDeviation="2"/>
<feComposite in2="hardAlpha" operator="out"/>
<feColorMatrix type="matrix" values="0 0 0 0 0 0 0 0 0 0 0 0 0 0 0 0 0 0 0.25 0"/>
<feBlend mode="normal" in2="BackgroundImageFix" result="effect1_dropShadow_67_1355"/>
<feBlend mode="normal" in="SourceGraphic" in2="effect1_dropShadow_67_1355" result="shape"/>
</filter>
<filter id="filter1_f_67_1355" x="-186.71" y="-132.71" width="649.42" height="508.22" filterUnits="userSpaceOnUse" color-interpolation-filters="sRGB">
<feFlood flood-opacity="0" result="BackgroundImageFix"/>
<feBlend mode="normal" in="SourceGraphic" in2="BackgroundImageFix" result="shape"/>
<feGaussianBlur stdDeviation="28.355" result="effect1_foregroundBlur_67_1355"/>
</filter>
<clipPath id="clip0_67_1355">
<rect x="4" width="268" height="152" rx="4" fill="white"/>
</clipPath>
</defs>
</svg>
