<svg width="88" height="20" viewBox="0 0 88 20" fill="none" xmlns="http://www.w3.org/2000/svg">
<path d="M4.51614 15.4001V3.40012H0.810547V1.09612H10.7945V3.40012H7.14654V15.4001H4.51614Z" fill="#FAFAFA"/>
<path d="M11.033 15.4001V4.95532H13.3946V7.27852L13.2026 6.93292C13.4458 6.15212 13.8234 5.60812 14.3354 5.30092C14.8602 4.99372 15.4874 4.84012 16.217 4.84012H16.8314V7.06732H15.929C15.2122 7.06732 14.6362 7.29132 14.201 7.73932C13.7658 8.17452 13.5482 8.78892 13.5482 9.58252V15.4001H11.033Z" fill="#FAFAFA"/>
<path d="M21.9391 15.6305C21.1327 15.6305 20.4287 15.4513 19.8271 15.0929C19.2383 14.7345 18.7839 14.2353 18.4639 13.5953C18.1567 12.9553 18.0031 12.2065 18.0031 11.3489V4.95532H20.5183V11.1377C20.5183 11.5729 20.6015 11.9569 20.7679 12.2897C20.9471 12.6097 21.1967 12.8657 21.5167 13.0577C21.8495 13.2369 22.2207 13.3265 22.6303 13.3265C23.0399 13.3265 23.4047 13.2369 23.7247 13.0577C24.0447 12.8657 24.2943 12.6033 24.4735 12.2705C24.6527 11.9377 24.7423 11.5409 24.7423 11.0801V4.95532H27.2575V15.4001H24.8767V13.3457L25.0879 13.7105C24.8447 14.3505 24.4415 14.8305 23.8783 15.1505C23.3279 15.4705 22.6815 15.6305 21.9391 15.6305Z" fill="#FAFAFA"/>
<path d="M34.9139 15.6305C34.0051 15.6305 33.1603 15.4641 32.3795 15.1313C31.6115 14.7985 30.9459 14.3377 30.3827 13.7489C29.8323 13.1473 29.4291 12.4497 29.1731 11.6561L31.3427 10.7153C31.6883 11.5345 32.1875 12.1809 32.8403 12.6545C33.4931 13.1153 34.2291 13.3457 35.0483 13.3457C35.5091 13.3457 35.9059 13.2753 36.2387 13.1345C36.5843 12.9809 36.8467 12.7761 37.0259 12.5201C37.2179 12.2641 37.3139 11.9569 37.3139 11.5985C37.3139 11.1761 37.1859 10.8305 36.9299 10.5617C36.6867 10.2801 36.3155 10.0625 35.8163 9.90892L33.0707 9.02572C31.9571 8.68012 31.1187 8.16172 30.5555 7.47052C29.9923 6.77932 29.7107 5.96652 29.7107 5.03212C29.7107 4.21292 29.9091 3.48972 30.3059 2.86252C30.7155 2.23532 31.2787 1.74892 31.9955 1.40332C32.7251 1.04492 33.5571 0.865723 34.4915 0.865723C35.3491 0.865723 36.1363 1.01932 36.8531 1.32652C37.5699 1.62092 38.1843 2.03692 38.6963 2.57452C39.2211 3.09932 39.6115 3.72012 39.8675 4.43692L37.7171 5.39692C37.4355 4.68012 37.0131 4.12972 36.4499 3.74572C35.8867 3.34892 35.2339 3.15052 34.4915 3.15052C34.0563 3.15052 33.6723 3.22732 33.3395 3.38092C33.0067 3.52172 32.7443 3.72652 32.5523 3.99532C32.3731 4.25132 32.2835 4.55852 32.2835 4.91692C32.2835 5.31372 32.4115 5.66572 32.6675 5.97292C32.9235 6.26732 33.3139 6.49772 33.8387 6.66412L36.4691 7.48972C37.6083 7.86092 38.4595 8.37292 39.0227 9.02572C39.5987 9.67852 39.8867 10.4849 39.8867 11.4449C39.8867 12.2641 39.6755 12.9873 39.2531 13.6145C38.8307 14.2417 38.2483 14.7345 37.5059 15.0929C36.7635 15.4513 35.8995 15.6305 34.9139 15.6305Z" fill="#FAFAFA"/>
<path d="M47.0571 15.6305C46.0203 15.6305 45.0859 15.3937 44.2539 14.9201C43.4347 14.4337 42.7883 13.7809 42.3147 12.9617C41.8411 12.1297 41.6043 11.1953 41.6043 10.1585C41.6043 9.12172 41.8411 8.19372 42.3147 7.37452C42.7883 6.55532 43.4347 5.90892 44.2539 5.43532C45.0859 4.96172 46.0203 4.72492 47.0571 4.72492C47.7995 4.72492 48.4907 4.85932 49.1307 5.12812C49.7707 5.38412 50.3211 5.74252 50.7819 6.20332C51.2555 6.65132 51.5947 7.18892 51.7995 7.81612L49.5915 8.77612C49.3995 8.25132 49.0731 7.82892 48.6123 7.50892C48.1643 7.18892 47.6459 7.02892 47.0571 7.02892C46.5067 7.02892 46.0139 7.16332 45.5787 7.43212C45.1563 7.70092 44.8235 8.07212 44.5803 8.54572C44.3371 9.01932 44.2155 9.56332 44.2155 10.1777C44.2155 10.7921 44.3371 11.3361 44.5803 11.8097C44.8235 12.2833 45.1563 12.6545 45.5787 12.9233C46.0139 13.1921 46.5067 13.3265 47.0571 13.3265C47.6587 13.3265 48.1835 13.1665 48.6315 12.8465C49.0795 12.5265 49.3995 12.0977 49.5915 11.5601L51.7995 12.5585C51.5947 13.1473 51.2619 13.6785 50.8011 14.1521C50.3403 14.6129 49.7899 14.9777 49.1499 15.2465C48.5099 15.5025 47.8123 15.6305 47.0571 15.6305Z" fill="#FAFAFA"/>
<path d="M56.8385 15.6305C56.1089 15.6305 55.4753 15.5089 54.9377 15.2657C54.4001 15.0225 53.9841 14.6769 53.6897 14.2289C53.3953 13.7681 53.2481 13.2369 53.2481 12.6353C53.2481 12.0593 53.3761 11.5473 53.6321 11.0993C53.8881 10.6385 54.2849 10.2545 54.8225 9.94732C55.3601 9.64012 56.0385 9.42252 56.8577 9.29452L60.2753 8.73772V10.6577L57.3377 11.1569C56.8385 11.2465 56.4673 11.4065 56.2241 11.6369C55.9809 11.8673 55.8593 12.1681 55.8593 12.5393C55.8593 12.8977 55.9937 13.1857 56.2625 13.4033C56.5441 13.6081 56.8897 13.7105 57.2993 13.7105C57.8241 13.7105 58.2849 13.6017 58.6817 13.3841C59.0913 13.1537 59.4049 12.8401 59.6225 12.4433C59.8529 12.0465 59.9681 11.6113 59.9681 11.1377V8.44972C59.9681 8.00172 59.7889 7.63052 59.4305 7.33612C59.0849 7.02892 58.6241 6.87532 58.0481 6.87532C57.5105 6.87532 57.0305 7.02252 56.6081 7.31692C56.1985 7.59852 55.8977 7.97612 55.7057 8.44972L53.6513 7.45132C53.8561 6.90092 54.1761 6.42732 54.6113 6.03052C55.0593 5.62092 55.5841 5.30092 56.1857 5.07052C56.7873 4.84012 57.4401 4.72492 58.1441 4.72492C59.0017 4.72492 59.7569 4.88492 60.4097 5.20492C61.0625 5.51212 61.5681 5.94732 61.9265 6.51052C62.2977 7.06092 62.4833 7.70732 62.4833 8.44972V15.4001H60.1025V13.6145L60.6401 13.5761C60.3713 14.0241 60.0513 14.4017 59.6801 14.7089C59.3089 15.0033 58.8865 15.2337 58.4129 15.4001C57.9393 15.5537 57.4145 15.6305 56.8385 15.6305Z" fill="#FAFAFA"/>
<path d="M64.808 19.2401V4.95532H67.1696V7.02892L66.9392 6.51052C67.2976 5.94732 67.784 5.51212 68.3984 5.20492C69.0128 4.88492 69.7232 4.72492 70.5296 4.72492C71.5152 4.72492 72.4047 4.96812 73.1983 5.45452C73.9919 5.94092 74.6191 6.59372 75.0799 7.41292C75.5535 8.23212 75.7903 9.15372 75.7903 10.1777C75.7903 11.1889 75.5599 12.1105 75.0991 12.9425C74.6383 13.7745 74.0111 14.4337 73.2175 14.9201C72.4239 15.3937 71.5216 15.6305 70.5104 15.6305C69.7552 15.6305 69.0576 15.4833 68.4176 15.1889C67.7904 14.8817 67.2912 14.4465 66.92 13.8833L67.3232 13.3841V19.2401H64.808ZM70.2224 13.3265C70.7984 13.3265 71.3103 13.1921 71.7583 12.9233C72.2063 12.6545 72.552 12.2833 72.7952 11.8097C73.0512 11.3361 73.1792 10.7921 73.1792 10.1777C73.1792 9.56332 73.0512 9.02572 72.7952 8.56492C72.552 8.09132 72.2063 7.72012 71.7583 7.45132C71.3103 7.16972 70.7984 7.02892 70.2224 7.02892C69.672 7.02892 69.1728 7.16332 68.7248 7.43212C68.2896 7.70092 67.944 8.07852 67.688 8.56492C67.4448 9.03852 67.3232 9.57612 67.3232 10.1777C67.3232 10.7921 67.4448 11.3361 67.688 11.8097C67.944 12.2833 68.2896 12.6545 68.7248 12.9233C69.1728 13.1921 69.672 13.3265 70.2224 13.3265Z" fill="#FAFAFA"/>
<path d="M82.6615 15.6305C81.5863 15.6305 80.6455 15.3873 79.8391 14.9009C79.0327 14.4145 78.4055 13.7553 77.9576 12.9233C77.5096 12.0913 77.2855 11.1697 77.2855 10.1585C77.2855 9.10892 77.5096 8.18092 77.9576 7.37452C78.4183 6.55532 79.0391 5.90892 79.8199 5.43532C80.6135 4.96172 81.4967 4.72492 82.4695 4.72492C83.2887 4.72492 84.0055 4.85932 84.6199 5.12812C85.2471 5.39692 85.7783 5.76812 86.2135 6.24172C86.6487 6.71532 86.9815 7.25932 87.2119 7.87372C87.4423 8.47532 87.5575 9.12812 87.5575 9.83212C87.5575 10.0113 87.5447 10.1969 87.5191 10.3889C87.5063 10.5809 87.4743 10.7473 87.4231 10.8881H79.3591V8.96812H86.0023L84.8119 9.87052C84.9271 9.28172 84.8951 8.75692 84.7159 8.29612C84.5495 7.83532 84.2679 7.47052 83.8711 7.20172C83.4871 6.93292 83.0199 6.79852 82.4695 6.79852C81.9447 6.79852 81.4775 6.93292 81.0679 7.20172C80.6583 7.45772 80.3447 7.84172 80.1271 8.35372C79.9223 8.85292 79.8455 9.46092 79.8967 10.1777C79.8455 10.8177 79.9287 11.3873 80.1463 11.8865C80.3767 12.3729 80.7095 12.7505 81.1447 13.0193C81.5927 13.2881 82.1047 13.4225 82.6807 13.4225C83.2567 13.4225 83.7431 13.3009 84.1399 13.0577C84.5495 12.8145 84.8695 12.4881 85.0999 12.0785L87.1351 13.0769C86.9303 13.5761 86.6103 14.0177 86.1751 14.4017C85.7399 14.7857 85.2215 15.0865 84.6199 15.3041C84.0311 15.5217 83.3783 15.6305 82.6615 15.6305Z" fill="#FAFAFA"/>
</svg>
